<?xml version="1.0" standalone="no"?>
<!DOCTYPE svg PUBLIC "-//W3C//DTD SVG 20010904//EN"
 "http://www.w3.org/TR/2001/REC-SVG-20010904/DTD/svg10.dtd">
<svg version="1.0" xmlns="http://www.w3.org/2000/svg"
 width="337.000000pt" height="337.000000pt" viewBox="0 0 337.000000 337.000000"
 preserveAspectRatio="xMidYMid meet">
<metadata>
Created by potrace 1.14, written by Peter Selinger 2001-2017
</metadata>
<g transform="translate(0.000000,337.000000) scale(0.100000,-0.100000)"
fill="#000000" stroke="none">
<path d="M0 2202 l0 -27 210 0 c115 0 210 2 210 5 0 3 -3 15 -6 28 -6 22 -7
22 -210 22 l-204 0 0 -28z"/>
<path d="M801 2208 c-5 -13 -7 -25 -6 -28 2 -3 97 -5 212 -5 l208 0 3 28 3 27
-206 0 c-204 0 -206 0 -214 -22z"/>
<path d="M1755 2215 c-61 -13 -115 -31 -115 -38 0 -2 111 -4 246 -4 212 0 243
2 221 13 -77 41 -239 54 -352 29z"/>
<path d="M2775 2214 c-77 -18 -77 -18 -98 -30 -13 -8 53 -11 233 -11 l251 0
-41 18 c-86 39 -236 49 -345 23z"/>
<path d="M0 2077 l0 -33 224 1 c123 0 227 3 230 6 4 3 2 18 -3 33 l-11 26
-220 0 -220 0 0 -33z"/>
<path d="M770 2107 c0 -1 -4 -16 -9 -33 l-8 -30 233 0 234 1 0 32 0 33 -225 0
c-124 0 -225 -1 -225 -3z"/>
<path d="M1511 2085 c-42 -47 -56 -45 370 -45 l402 0 -25 33 -26 32 -351 0
c-340 0 -353 -1 -370 -20z"/>
<path d="M2529 2081 c-11 -13 -19 -28 -19 -32 0 -5 178 -9 396 -9 l395 0 -18
30 c-9 17 -24 31 -33 31 -8 1 -170 2 -359 3 l-343 1 -19 -24z"/>
<path d="M2 1948 l3 -32 245 0 c236 0 245 1 242 20 -7 45 0 44 -252 44 l-241
0 3 -32z"/>
<path d="M722 1951 c-9 -26 -8 -29 11 -33 18 -3 435 -2 475 1 7 1 12 14 12 31
l0 30 -244 0 -244 0 -10 -29z"/>
<path d="M1463 1953 c1 -16 5 -30 9 -33 5 -4 230 -5 276 -1 6 1 12 9 12 19 0
10 5 23 12 30 9 9 -24 12 -150 12 l-161 0 2 -27z"/>
<path d="M2017 1947 l15 -33 127 2 c69 2 129 3 134 3 4 1 7 15 7 31 l0 30
-149 0 -149 0 15 -33z"/>
<path d="M2490 1951 c0 -16 6 -31 13 -33 10 -3 248 -2 267 1 3 1 11 15 17 31
l11 30 -154 0 -154 0 0 -29z"/>
<path d="M3030 1974 c0 -9 22 -49 31 -54 11 -8 244 -4 256 3 6 4 8 18 5 32
l-4 25 -144 0 c-79 0 -144 -3 -144 -6z"/>
<path d="M0 1817 l0 -32 270 0 269 0 -6 25 c-3 14 -8 28 -10 33 -2 4 -121 7
-264 7 l-259 0 0 -33z"/>
<path d="M686 1825 c-4 -14 -5 -29 -2 -33 2 -4 123 -7 268 -7 l263 0 3 33 3
32 -264 0 -265 0 -6 -25z"/>
<path d="M1482 1843 c30 -62 23 -59 111 -56 88 2 176 11 189 19 4 3 2 14 -5
24 -11 18 -24 20 -155 20 -79 0 -142 -3 -140 -7z"/>
<path d="M2007 1837 c-3 -8 -21 -22 -41 -31 -20 -9 -36 -18 -36 -19 0 -1 70
-2 155 -1 160 1 178 5 188 44 5 19 -1 20 -128 20 -102 0 -134 -3 -138 -13z"/>
<path d="M2510 1837 c0 -7 6 -22 14 -32 12 -17 25 -19 102 -17 104 2 174 9
183 17 3 3 0 14 -5 23 -10 14 -32 17 -153 20 -112 2 -141 0 -141 -11z"/>
<path d="M3025 1830 c-10 -11 -26 -22 -36 -25 -44 -14 -2 -20 135 -19 132 1
148 3 161 20 31 41 22 44 -113 44 -116 0 -131 -2 -147 -20z"/>
<path d="M0 1690 l0 -30 289 0 290 0 -10 30 -11 30 -279 0 -279 0 0 -30z"/>
<path d="M646 1698 c-3 -13 -6 -26 -6 -30 0 -5 131 -8 290 -8 l290 0 0 30 0
30 -284 0 -284 0 -6 -22z"/>
<path d="M1538 1690 c-29 -26 -30 -30 -13 -30 23 -1 630 -1 690 0 l40 1 -33
29 -32 30 -310 0 -310 0 -32 -30z"/>
<path d="M2560 1690 c-30 -25 -32 -29 -15 -30 68 -3 728 0 731 3 3 2 -13 16
-34 31 l-38 26 -305 0 -305 0 -34 -30z"/>
<path d="M2 1558 l3 -33 150 0 150 0 3 33 3 32 -156 0 -156 0 3 -32z"/>
<path d="M341 1578 c0 -7 4 -22 8 -33 8 -19 18 -20 255 -20 237 0 249 0 262
20 30 42 22 45 -120 45 -98 0 -136 -3 -139 -12 -4 -10 -6 -10 -6 0 -1 9 -34
12 -131 12 -98 0 -130 -3 -129 -12z"/>
<path d="M912 1558 l3 -33 153 0 152 0 0 32 0 33 -156 0 -155 0 3 -32z"/>
<path d="M1443 1560 c-6 -16 -8 -31 -5 -31 4 -1 73 -2 154 -3 l148 -1 31 32
31 33 -174 0 -174 0 -11 -30z"/>
<path d="M2004 1557 l25 -32 143 0 c79 0 144 2 146 5 2 3 1 17 -3 33 l-7 27
-165 0 -164 0 25 -33z"/>
<path d="M2470 1564 c-6 -14 -10 -28 -10 -32 0 -8 307 -9 312 -2 2 3 14 17 27
33 l24 27 -172 0 -171 0 -10 -26z"/>
<path d="M3010 1584 c0 -3 9 -18 21 -32 20 -26 21 -26 166 -27 79 0 147 3 149
7 2 3 -1 18 -7 32 l-12 26 -159 0 c-87 0 -158 -3 -158 -6z"/>
<path d="M1429 1466 c-1 -1 -2 -16 -4 -33 l-3 -33 174 0 174 0 -12 28 c-7 15
-14 29 -16 32 -3 4 -307 9 -313 6z"/>
<path d="M2018 1440 c-7 -14 -14 -28 -16 -32 -2 -5 73 -8 167 -8 l171 0 0 33
0 32 -154 0 -155 1 -13 -26z"/>
<path d="M2450 1433 l0 -33 171 0 c159 0 171 1 164 18 -4 9 -9 24 -12 32 -3
13 -30 15 -164 15 l-159 0 0 -32z"/>
<path d="M3039 1433 l-16 -33 167 0 c176 0 181 1 172 45 -3 20 -9 21 -155 21
l-152 -1 -16 -32z"/>
<path d="M0 1427 l0 -32 155 0 155 0 0 32 0 33 -155 0 -155 0 0 -33z"/>
<path d="M380 1455 c0 -4 6 -18 14 -33 l14 -27 203 0 203 0 13 33 13 32 -230
0 c-126 0 -230 -2 -230 -5z"/>
<path d="M910 1427 l0 -32 153 0 152 0 3 33 3 32 -155 0 -156 0 0 -33z"/>
<path d="M10 1332 c-5 -2 -10 -17 -10 -33 l0 -29 155 0 155 0 0 33 0 32 -145
0 c-80 0 -149 -1 -155 -3z"/>
<path d="M438 1329 c-6 -4 -8 -18 -4 -33 l6 -26 165 0 165 0 11 26 c5 15 7 29
4 32 -7 8 -335 8 -347 1z"/>
<path d="M920 1332 c-6 -2 -10 -17 -10 -33 l0 -29 155 0 155 0 0 30 c0 22 -5
30 -17 31 -59 3 -275 3 -283 1z"/>
<path d="M1450 1332 c-6 -2 -3 -16 7 -33 l17 -29 402 0 403 0 20 27 c12 14 19
28 16 31 -5 6 -849 9 -865 4z"/>
<path d="M2487 1332 c-21 -4 -21 -11 -1 -40 l15 -22 400 0 401 0 19 23 c10 12
18 27 19 32 0 9 -808 16 -853 7z"/>
<path d="M4 1201 c-2 -2 -4 -17 -4 -33 l0 -28 156 0 155 0 -3 32 -3 32 -148 1
c-82 0 -150 -2 -153 -4z"/>
<path d="M474 1198 c-2 -3 0 -18 6 -32 9 -26 10 -26 128 -26 l118 0 11 30 c8
23 8 30 0 31 -44 5 -260 3 -263 -3z"/>
<path d="M914 1201 c-2 -2 -4 -17 -4 -33 l0 -28 155 0 155 0 0 30 c0 17 -3 31
-7 31 -22 4 -295 3 -299 0z"/>
<path d="M1585 1199 c4 -5 79 -28 157 -48 40 -10 244 -8 293 3 59 14 135 40
129 45 -7 8 -583 8 -579 0z"/>
<path d="M2621 1194 c5 -6 44 -19 86 -30 81 -19 260 -26 338 -12 55 10 143 37
149 46 2 4 -128 7 -289 7 -214 0 -291 -3 -284 -11z"/>
</g>
</svg>
